<svg xmlns="http://www.w3.org/2000/svg" xmlns:xlink="http://www.w3.org/1999/xlink" version="1.1" id="Calque_2" x="0px" y="0px" viewBox="0 0 1000 1000" enable-background="new 0 0 1000 1000" xml:space="preserve" height="100px" width="100px">
<metadata><?xpacket begin="&#65279;" id="W5M0MpCehiHzreSzNTczkc9d"?>
<x:xmpmeta xmlns:x="adobe:ns:meta/" x:xmptk="Adobe XMP Core 5.5-c014 79.151739, 2013/04/03-12:12:15        ">
   <rdf:RDF xmlns:rdf="http://www.w3.org/1999/02/22-rdf-syntax-ns#">
      <rdf:Description xmlns:xmp="http://ns.adobe.com/xap/1.0/" xmlns:xmpGImg="http://ns.adobe.com/xap/1.0/g/img/" xmlns:xmpTPg="http://ns.adobe.com/xap/1.0/t/pg/" xmlns:stDim="http://ns.adobe.com/xap/1.0/sType/Dimensions#" xmlns:xmpG="http://ns.adobe.com/xap/1.0/g/" xmlns:dc="http://purl.org/dc/elements/1.1/" xmlns:xmpMM="http://ns.adobe.com/xap/1.0/mm/" xmlns:stEvt="http://ns.adobe.com/xap/1.0/sType/ResourceEvent#" xmlns:stRef="http://ns.adobe.com/xap/1.0/sType/ResourceRef#" rdf:about="">
         <xmp:CreatorTool>Adobe Illustrator CC (Macintosh)</xmp:CreatorTool>
         <xmp:CreateDate>2014-06-20T17:13:25+02:00</xmp:CreateDate>
         <xmp:MetadataDate>2014-06-20T17:13:25+02:00</xmp:MetadataDate>
         <xmp:ModifyDate>2014-06-20T17:13:25+02:00</xmp:ModifyDate>
         <xmp:Thumbnails>
            <rdf:Alt>
               <rdf:li rdf:parseType="Resource">
                  <xmpGImg:width>192</xmpGImg:width>
                  <xmpGImg:height>256</xmpGImg:height>
                  <xmpGImg:format>JPEG</xmpGImg:format>
                  </rdf:li>
            </rdf:Alt>
         </xmp:Thumbnails>
         <xmpTPg:MaxPageSize rdf:parseType="Resource">
            <stDim:w>1000.000000</stDim:w>
            <stDim:h>1000.000000</stDim:h>
            <stDim:unit>Pixels</stDim:unit>
         </xmpTPg:MaxPageSize>
         <xmpTPg:NPages>1</xmpTPg:NPages>
         <xmpTPg:HasVisibleTransparency>False</xmpTPg:HasVisibleTransparency>
         <xmpTPg:HasVisibleOverprint>False</xmpTPg:HasVisibleOverprint>
         <xmpTPg:PlateNames>
            <rdf:Seq>
               <rdf:li>Cyan</rdf:li>
               <rdf:li>Magenta</rdf:li>
               <rdf:li>Yellow</rdf:li>
               <rdf:li>Black</rdf:li>
            </rdf:Seq>
         </xmpTPg:PlateNames>
         <xmpTPg:SwatchGroups>
            <rdf:Seq>
               <rdf:li rdf:parseType="Resource">
                  <xmpG:groupName>Groupe de nuances par d&#233;faut</xmpG:groupName>
                  <xmpG:groupType>0</xmpG:groupType>
               </rdf:li>
            </rdf:Seq>
         </xmpTPg:SwatchGroups>
         <dc:format>image/svg+xml</dc:format>
         <xmpMM:DocumentID>xmp.did:ba64e6b8-c7c9-4f2c-ac6b-5634f76b611d</xmpMM:DocumentID>
         <xmpMM:InstanceID>xmp.iid:ba64e6b8-c7c9-4f2c-ac6b-5634f76b611d</xmpMM:InstanceID>
         <xmpMM:OriginalDocumentID>xmp.did:2ca5e5bf-976c-44da-9b30-3808fa2bf024</xmpMM:OriginalDocumentID>
         <xmpMM:History>
            <rdf:Seq>
               <rdf:li rdf:parseType="Resource">
                  <stEvt:action>saved</stEvt:action>
                  <stEvt:instanceID>xmp.iid:2ca5e5bf-976c-44da-9b30-3808fa2bf024</stEvt:instanceID>
                  <stEvt:when>2014-05-16T15:18:31+02:00</stEvt:when>
                  <stEvt:softwareAgent>Adobe Illustrator CC (Macintosh)</stEvt:softwareAgent>
                  <stEvt:changed>/</stEvt:changed>
               </rdf:li>
               <rdf:li rdf:parseType="Resource">
                  <stEvt:action>saved</stEvt:action>
                  <stEvt:instanceID>xmp.iid:ba64e6b8-c7c9-4f2c-ac6b-5634f76b611d</stEvt:instanceID>
                  <stEvt:when>2014-06-20T17:13:25+02:00</stEvt:when>
                  <stEvt:softwareAgent>Adobe Illustrator CC (Macintosh)</stEvt:softwareAgent>
                  <stEvt:changed>/</stEvt:changed>
               </rdf:li>
            </rdf:Seq>
         </xmpMM:History>
         <xmpMM:DerivedFrom rdf:parseType="Resource">
            <stRef:instanceID>xmp.iid:0b4849a9-6f80-4df7-9f93-4a921190787d</stRef:instanceID>
            <stRef:documentID>xmp.did:0b4849a9-6f80-4df7-9f93-4a921190787d</stRef:documentID>
            <stRef:originalDocumentID>xmp.did:2ca5e5bf-976c-44da-9b30-3808fa2bf024</stRef:originalDocumentID>
         </xmpMM:DerivedFrom>
      </rdf:Description>
   </rdf:RDF>
</x:xmpmeta>
                                                                                                    
                                                                                                    
                                                                                                    
                                                                                                    
                                                                                                    
                                                                                                    
                                                                                                    
                                                                                                    
                                                                                                    
                                                                                                    
                                                                                                    
                                                                                                    
                                                                                                    
                                                                                                    
                                                                                                    
                                                                                                    
                                                                                                    
                                                                                                    
                                                                                                    
                                                                                                    
                           
<?xpacket end="w"?>
	</metadata>
<path d="M612.1,146.6c-41.3-26.3-75.7-52.4-100.3-72.4l-0.7,0.7l-0.9-0.8c-24.6,20-59.1,46.2-100.5,72.6  c-75,47.7-147,79.7-214.3,95.2c-2.1,84.5,1.8,157.3,11.9,222.2c11.2,71.8,30,134.2,57.7,190.8c47.5,97.3,121.4,180.3,245.9,275.7  c124.4-95.4,198.3-178.5,245.9-275.7c27.6-56.6,46.5-119,57.7-190.8c10.1-64.9,14-137.8,11.9-222.2C759,226.3,687,194.3,612.1,146.6  z"/>
<path d="M870.1,204.3C700.4,180,535.8,36.7,511,14.4v-0.3c0,0-0.1,0.1-0.2,0.1c-0.1,0-0.1-0.1-0.2-0.1v0.3  C485.9,36.7,321.3,180,151.6,204.3c-17.4,408.1,92.2,585.2,359.1,782.5v0.2c0.1,0,0.1-0.1,0.2-0.1c0.1,0,0.1,0.1,0.2,0.1v-0.2  C777.9,789.5,887.5,612.4,870.1,204.3z M175.8,225.5c69.3-13.5,144.2-45.7,223.1-95.8c49.7-31.6,89.3-63.1,111.7-82.1l0.4,0.3  l0.2-0.2c22.5,19,62,50.4,111.6,82c78.8,50.2,153.8,82.3,223.1,95.8c3,92.4-0.8,171.6-11.7,241.6c-11.5,73.8-30.9,138.1-59.5,196.5  c-50.2,102.9-129.6,190.9-263.8,292.1C376.6,854.5,297.3,766.5,247,663.6c-28.5-58.4-48-122.7-59.5-196.5  C176.7,397.1,172.8,317.9,175.8,225.5z"/>
</svg>