<svg xmlns="http://www.w3.org/2000/svg" xmlns:xlink="http://www.w3.org/1999/xlink" version="1.1" id="Layer_1" x="0px" y="0px" width="90px" height="90px" viewBox="0 0 90 90" enable-background="new 0 0 90 90" xml:space="preserve">
<path d="M23.285,19.074c-1.496,0-2.717-1.217-2.717-2.719V5.1c0-1.502,1.221-2.719,2.717-2.719c1.502,0,2.719,1.217,2.719,2.719  v11.256C26.003,17.857,24.787,19.074,23.285,19.074z"/>
<path d="M56.503,19.074c-1.5,0-2.719-1.217-2.719-2.719V5.1c0-1.502,1.219-2.719,2.719-2.719s2.718,1.217,2.718,2.719v11.256  C59.221,17.857,58.003,19.074,56.503,19.074z"/>
<path d="M29.021,71.936h-3.166V57.277h2.338c0.131-0.648,0.289-1.281,0.459-1.908h-2.797V41.182h11.771  c1.012-0.875,2.084-1.678,3.211-2.406v-13.23h13.078v8.729c0.627-0.057,1.265-0.092,1.903-0.105v-8.623H67.38v10.73  c1.209,0.492,2.373,1.063,3.494,1.707v-21.24c0-3.531-2.875-6.406-6.406-6.406h-2.725v6.018c0,2.895-2.347,5.242-5.24,5.242  s-5.244-2.348-5.244-5.242v-6.018H28.525v6.018c0,2.895-2.342,5.242-5.24,5.242c-2.893,0-5.238-2.348-5.238-5.242v-6.018h-2.725  c-3.531,0-6.404,2.875-6.404,6.406v52.279c0,3.533,2.873,6.408,6.404,6.408h15.082C29.869,74.303,29.408,73.137,29.021,71.936z   M25.855,25.545h13.076v13.73H25.855V25.545z M23.949,71.936h-8.627c-1.607,0-2.912-1.307-2.912-2.912V57.277h11.539V71.936z   M23.949,55.369H12.41V41.182h11.539V55.369z M23.949,39.275H12.41v-13.73h11.539V39.275z"/>
<path d="M56.505,87.619c-13.555,0-24.582-11.027-24.582-24.582c0-13.553,11.027-24.576,24.582-24.576  c13.552,0,24.578,11.023,24.578,24.576C81.083,76.592,70.057,87.619,56.505,87.619z M56.505,44.121  c-10.435,0-18.919,8.484-18.919,18.916c0,10.434,8.486,18.92,18.919,18.92c10.431,0,18.916-8.486,18.916-18.92  C75.421,52.605,66.936,44.121,56.505,44.121z"/>
<path d="M69.4,55.633c0-0.289-0.121-0.559-0.323-0.758c-0.002,0-0.004-0.004-0.007-0.004c-0.055-0.053-0.104-0.1-0.172-0.141  l-11.83-7.4c-0.344-0.217-0.782-0.217-1.127,0l-11.835,7.404c-0.041,0.021-0.068,0.055-0.105,0.082  c-0.029,0.025-0.063,0.045-0.09,0.074c-0.039,0.039-0.07,0.084-0.102,0.131c-0.02,0.025-0.045,0.055-0.063,0.088  c-0.033,0.051-0.053,0.109-0.07,0.168c-0.012,0.023-0.027,0.051-0.033,0.082c-0.025,0.088-0.039,0.182-0.039,0.273v14.807  c0,0.369,0.188,0.707,0.502,0.9l11.83,7.402c0.008,0.006,0.02,0.006,0.025,0.014c0.01,0.002,0.014,0.014,0.021,0.018  c0.051,0.023,0.102,0.043,0.15,0.063c0.029,0.01,0.059,0.025,0.088,0.031c0.09,0.027,0.186,0.039,0.275,0.039  c0.096,0,0.188-0.012,0.277-0.039c0.029-0.006,0.061-0.021,0.088-0.031c0.053-0.02,0.104-0.037,0.148-0.063  c0.01-0.004,0.016-0.016,0.021-0.018c0.012-0.008,0.02-0.008,0.027-0.014l11.832-7.402c0.311-0.193,0.5-0.531,0.5-0.9V55.674  C69.396,55.66,69.4,55.648,69.4,55.633z M50.835,53.031l9.828,6.148l-4.164,2.604l-9.826-6.148L50.835,53.031z M56.505,49.484  l9.828,6.146l-3.664,2.291l-9.83-6.146L56.505,49.484z M45.73,57.553l9.707,6.074v12.297l-9.707-6.072V57.553z M57.564,75.924  V63.627l3.938-2.465v1.508c0,0.59,0.477,1.064,1.063,1.064c0.59,0,1.063-0.477,1.063-1.064v-2.838l3.643-2.275v12.295L57.564,75.924  z"/>
</svg>