<svg xmlns="http://www.w3.org/2000/svg" xmlns:xlink="http://www.w3.org/1999/xlink" version="1.1" id="Layer_1" x="0px" y="0px" viewBox="0 0 100 100" enable-background="new 0 0 100 100" xml:space="preserve" height="100px" width="100px">
<path d="M90.3,57.2c0-0.1-0.1-0.1-0.2-0.2c-4.4-4.1-9.4-6.8-14.8-8.1V27.8c0,0,0,0,0,0c0,0,0,0,0,0c0,0,0,0,0,0c0-0.1,0-0.2,0-0.3  c0,0,0-0.1,0-0.1c0-0.1-0.1-0.1-0.1-0.2c0,0,0-0.1-0.1-0.1c0-0.1-0.1-0.1-0.1-0.2c0,0-0.1-0.1-0.1-0.1c0,0-0.1-0.1-0.1-0.1  c0,0-0.1,0-0.1,0c0,0,0,0-0.1,0l-21.4-10c-0.3-0.2-0.7-0.2-1,0l-21.4,10c-0.1,0.1-0.2,0.1-0.3,0.2c0,0,0,0.1-0.1,0.1  c-0.1,0.1-0.1,0.2-0.2,0.3c0,0,0,0.1-0.1,0.1c-0.1,0.1-0.1,0.3-0.1,0.4c0,0,0,0,0,0c0,0,0,0,0,0v23.8c0,0.7,0.6,1.3,1.3,1.2l6.8,3.3  H22.1c-4.1,0-7,1.8-8.4,5c-2.5,0.2-4.5,1.2-5.9,2.8c-2.8,3.3-2.1,8.3-2.1,8.5c0.1,0.6,0.6,1,1.2,1h6.5c-0.3,2.1-0.1,3.8-0.1,3.9  c0.1,0.6,0.6,1,1.2,1h6.5c-0.2,1.8,0,3.2,0,3.3c0.1,0.6,0.6,1,1.2,1h67.1c0.3,0,0.6-0.1,0.9-0.4C100.5,72.1,90.4,57.4,90.3,57.2z   M53.9,59.9V38.9l18.9-9.2v20.9L53.9,59.9z M52.7,19.1l18.5,8.7l-18.5,9l-18.5-9L52.7,19.1z M32.5,29.7l18.9,9.2v20.9l-18.9-9.2  V29.7z M22.1,58.6h21.1l5.1,2.5H16.5C17.6,59.5,19.4,58.6,22.1,58.6z M88.8,80.3H23.3c0-0.7,0-1.7,0.3-2.8c0.8-3.1,2.9-4.7,6.6-4.7  h27.4c0.3,0,0.6-0.1,0.9-0.3c0.3-0.3,8.4-7.8,24.5,0.2c0.6,0.3,1.3,0.1,1.7-0.5c0.3-0.6,0.1-1.3-0.5-1.7c-15.8-8-24.9-1.8-26.9-0.1  H30.2c-4.4,0-7.4,2-8.7,5.6h-5.9c0-1.4,0.2-3.8,1.6-5.5c1.1-1.3,2.9-2,5.3-2h2h30.4c0.7,0,1.2-0.6,1.2-1.2c0-0.7-0.6-1.2-1.2-1.2  H24.5h-2c-3.1,0-5.5,1-7.1,2.9c-0.6,0.7-1,1.4-1.3,2.1H8c0-1.4,0.2-3.8,1.6-5.5c1.1-1.3,2.9-2,5.3-2h36.5c0.4,0,0.7-0.2,0.9-0.4  c0.1,0,0.2,0,0.3,0c0.4,0,0.8-0.2,1-0.5l6.5-3.2c0.1,0.6,0.3,1.2,0.7,1.7c0.8,1.1,2.1,1.6,4,1.6c0.7,0,1.2-0.6,1.2-1.2  c0-0.7-0.6-1.2-1.2-1.2c-0.7,0-1.6-0.1-2-0.6c-0.3-0.4-0.3-0.9-0.2-1.4L74,52.9c0.7,0.1,1.3-0.5,1.3-1.2v-0.1  c4.8,1.2,9.2,3.6,13,7.3C89.2,60.1,96.7,71.8,88.8,80.3z"/>
</svg>