<svg xmlns="http://www.w3.org/2000/svg" xmlns:xlink="http://www.w3.org/1999/xlink" version="1.1" id="Layer_1" x="0px" y="0px" width="100px" height="100px" viewBox="0 0 100 100" enable-background="new 0 0 100 100" xml:space="preserve">
<path fill="#000000" d="M97.336,44.412L88.399,32.8c-0.488-0.636-0.718-0.865-1.863-1.515L52.748,11.962  c-0.206-0.119-0.442-0.217-0.695-0.292c-0.435-0.175-1.057-0.285-1.747-0.285c-0.43,0-0.832,0.043-1.18,0.117  c-0.393,0.071-0.787,0.212-1.165,0.429L14.173,31.255c-0.954,0.545-1.744,1.471-2.139,2.524L2.991,49.341  c-0.887,1.489-0.148,2.958,1.011,3.522l7.761,4.43v9.633c0,1.672,1.136,3.246,2.411,3.975l33.788,19.324  c0.144,0.082,0.301,0.154,0.469,0.215c0.451,0.215,1.168,0.352,1.975,0.352c0.463,0,0.897-0.045,1.423-0.16  c0.201-0.051,0.383-0.113,0.534-0.182c0.13-0.057,0.26-0.121,0.387-0.193l33.788-19.324c1.375-0.787,2.412-2.365,2.412-3.975V45.163  L94.308,48C97.075,49.465,99.246,46.893,97.336,44.412z M8.316,49.793L15.46,37.81l31.621,18.099l-6.502,12.303L8.316,49.793z   M16.559,66.729l0.001-6.695L40.306,73.59c1.537,0.877,2.6,0.377,3.509-1.221l4.138-7.828v20.143L16.559,66.729z M47.782,27.404  L27.351,39.089l-8.598-4.917l29.2-16.701l0.003,9.839L47.782,27.404z M81.954,34.201l-8.785,5.014L52.757,27.542v-10.04  L81.954,34.201z M52.757,84.715l0.001-28.277l31.386-17.95L84.15,66.76L52.757,84.715z"/>
</svg>