<svg xmlns="http://www.w3.org/2000/svg" xmlns:xlink="http://www.w3.org/1999/xlink" version="1.1" id="Layer_1" x="0px" y="0px" width="100px" height="56.797px" viewBox="1.377 164.476 100 56.797" enable-background="new 1.377 164.476 100 56.797" xml:space="preserve">
<path d="M27.931,200.408c-5.69,0-10.432,4.637-10.432,10.432c0,5.69,4.742,10.433,10.432,10.433c5.795,0,10.432-4.742,10.432-10.433  C38.363,205.045,33.727,200.408,27.931,200.408z M27.931,214.739c-2.213,0-3.899-1.687-3.899-3.899c0-2.212,1.686-4.004,3.899-4.004  s3.899,1.792,3.899,4.004C31.83,213.053,30.144,214.739,27.931,214.739z"/>
<path d="M99.796,191.557l-10.115-5.795l-8.009-15.279l-1.37-2.951v-0.526c0-1.37-1.159-2.529-2.528-2.529h-0.211h-2.318H8.437  c-1.37,0-2.529,1.159-2.529,2.529v35.933H1.377v8.852h12.329c0-0.316,0-0.633,0-0.949c0-1.896,0.422-3.793,1.159-5.584  c0.738-1.687,1.686-3.161,3.056-4.531c1.264-1.265,2.845-2.318,4.531-3.056c1.686-0.738,3.583-1.054,5.479-1.054  c7.798,0,14.226,6.322,14.226,14.225c0,0.316,0,0.633,0,0.949h22.339c0-0.316,0-0.633,0-0.949c0-1.896,0.422-3.793,1.159-5.584  c0.737-1.687,1.686-3.161,3.056-4.531c1.265-1.265,2.845-2.318,4.531-3.056c1.686-0.738,3.583-1.054,5.479-1.054  c7.798,0,14.226,6.322,14.226,14.225c0,0.316,0,0.633,0,0.949h5.9c1.476,0,2.529-1.054,2.529-2.424v-12.961v-1.687v-0.843  C101.377,192.821,100.745,191.979,99.796,191.557z M65.761,185.551v-15.068h9.483l7.903,15.068H65.761z"/>
<path d="M78.722,200.408c-5.69,0-10.433,4.637-10.433,10.432c0,5.69,4.742,10.433,10.433,10.433c5.796,0,10.432-4.742,10.432-10.433  C89.153,205.045,84.518,200.408,78.722,200.408z M78.722,214.739c-2.213,0-3.899-1.687-3.899-3.899c0-2.212,1.687-4.004,3.899-4.004  s3.898,1.792,3.898,4.004C82.62,213.053,80.935,214.739,78.722,214.739z"/>
</svg>